<svg width="142" height="46" fill="none" xmlns="http://www.w3.org/2000/svg"><path d="M80.26 5.4h3.564v9.774h6.012V18H80.26V5.4Zm15.685 12.762c-1.044 0-1.986-.216-2.826-.648a4.955 4.955 0 0 1-1.98-1.8c-.468-.768-.702-1.638-.702-2.61 0-.96.234-1.824.702-2.592a4.856 4.856 0 0 1 1.962-1.782c.84-.432 1.788-.648 2.844-.648 1.056 0 2.004.216 2.844.648a4.706 4.706 0 0 1 1.962 1.782c.468.756.702 1.62.702 2.592s-.234 1.842-.702 2.61a4.827 4.827 0 0 1-1.962 1.8c-.84.432-1.788.648-2.844.648Zm0-2.718c.6 0 1.092-.204 1.476-.612.384-.42.576-.996.576-1.728 0-.72-.192-1.284-.576-1.692-.384-.408-.876-.612-1.476-.612s-1.092.204-1.476.612c-.384.408-.576.972-.576 1.692 0 .732.192 1.308.576 1.728.384.408.876.612 1.476.612Zm17.107-7.2L109.02 18h-3.528l-4.014-9.756h3.51l2.34 5.958 2.466-5.958h3.258Zm10.592 4.896c0 .024-.018.306-.054.846h-7.092c.144.504.42.894.828 1.17.42.264.942.396 1.566.396.468 0 .87-.066 1.206-.198a3.542 3.542 0 0 0 1.044-.648l1.8 1.872c-.948 1.056-2.334 1.584-4.158 1.584-1.14 0-2.142-.216-3.006-.648-.864-.432-1.536-1.032-2.016-1.8-.468-.768-.702-1.638-.702-2.61 0-.96.228-1.818.684-2.574a4.885 4.885 0 0 1 1.926-1.8c.816-.432 1.734-.648 2.754-.648.972 0 1.854.204 2.646.612a4.452 4.452 0 0 1 1.872 1.746c.468.756.702 1.656.702 2.7Zm-5.202-2.628c-.528 0-.972.15-1.332.45-.348.3-.57.708-.666 1.224h3.996c-.096-.516-.324-.924-.684-1.224-.348-.3-.786-.45-1.314-.45Zm6.779-5.868h3.42V18h-3.42V4.644Zm15.921 3.6-4.212 10.152c-.492 1.2-1.092 2.04-1.8 2.52-.708.492-1.572.738-2.592.738a5.144 5.144 0 0 1-1.566-.252c-.516-.156-.936-.366-1.26-.63l1.188-2.394c.192.18.42.318.684.414.276.108.552.162.828.162.324 0 .588-.066.792-.198.216-.132.396-.342.54-.63l-4.176-9.882h3.51l2.394 5.958 2.412-5.958h3.258ZM96.02 27.4c1.14 0 2.13.192 2.97.576.84.372 1.488.912 1.944 1.62.456.696.684 1.518.684 2.466 0 .948-.228 1.77-.684 2.466-.456.696-1.104 1.236-1.944 1.62-.84.372-1.83.558-2.97.558h-2.196V40H90.26V27.4h5.76Zm-.216 6.498c.732 0 1.284-.156 1.656-.468.372-.324.558-.78.558-1.368 0-.588-.186-1.044-.558-1.368-.372-.324-.924-.486-1.656-.486h-1.98v3.69h1.98Zm17.344 1.242c0 .024-.018.306-.054.846h-7.092c.144.504.42.894.828 1.17.42.264.942.396 1.566.396.468 0 .87-.066 1.206-.198a3.542 3.542 0 0 0 1.044-.648l1.8 1.872c-.948 1.056-2.334 1.584-4.158 1.584-1.14 0-2.142-.216-3.006-.648-.864-.432-1.536-1.032-2.016-1.8-.468-.768-.702-1.638-.702-2.61 0-.96.228-1.818.684-2.574a4.885 4.885 0 0 1 1.926-1.8c.816-.432 1.734-.648 2.754-.648.972 0 1.854.204 2.646.612a4.452 4.452 0 0 1 1.872 1.746c.468.756.702 1.656.702 2.7Zm-5.202-2.628c-.528 0-.972.15-1.332.45-.348.3-.57.708-.666 1.224h3.996c-.096-.516-.324-.924-.684-1.224-.348-.3-.786-.45-1.314-.45Zm13.511 7.092c-.288.18-.642.318-1.062.414a5.727 5.727 0 0 1-1.314.144c-1.272 0-2.25-.312-2.934-.936-.684-.624-1.026-1.554-1.026-2.79V33.16h-1.422v-2.556h1.422v-2.538h3.42v2.538h2.232v2.556h-2.232v3.24c0 .348.09.624.27.828.192.192.444.288.756.288.396 0 .744-.102 1.044-.306l.846 2.394Zm4.865.558c-.816 0-1.62-.09-2.412-.27-.792-.192-1.428-.438-1.908-.738l1.026-2.34c.444.276.972.498 1.584.666a7.338 7.338 0 0 0 1.818.234c.552 0 .942-.054 1.17-.162.24-.12.36-.288.36-.504 0-.216-.144-.366-.432-.45-.276-.096-.72-.186-1.332-.27a13.536 13.536 0 0 1-1.998-.378 3.073 3.073 0 0 1-1.404-.864c-.396-.42-.594-1.008-.594-1.764 0-.624.186-1.176.558-1.656.372-.492.912-.876 1.62-1.152.72-.288 1.578-.432 2.574-.432.708 0 1.41.072 2.106.216.696.144 1.278.348 1.746.612l-1.026 2.322c-.864-.48-1.8-.72-2.808-.72-.54 0-.936.066-1.188.198-.252.12-.378.282-.378.486 0 .228.138.39.414.486.276.084.732.174 1.368.27.804.12 1.47.258 1.998.414.528.156.984.444 1.368.864.396.408.594.984.594 1.728 0 .612-.186 1.164-.558 1.656-.372.48-.924.858-1.656 1.134-.72.276-1.59.414-2.61.414Z" fill="#2C312A"/><path d="M0 6a6 6 0 0 1 6-6h4.535C13 0 15 2 15 4.465c0 4.014 4.883 5.99 7.674 3.105l5.558-5.743A6 6 0 0 1 32.543 0H66a6 6 0 0 1 6 6v33a6 6 0 0 1-6 6H6a6 6 0 0 1-6-6V6Z" fill="url(#a)"/><path fill-rule="evenodd" clip-rule="evenodd" d="m9.525 34.16-2.949-5.965L7.712 27a22.982 22.982 0 0 0 13.515 4.662c7.914 0 11.274-4.423 13.12-7.878l9.856 5.412 2.133 10.759 8.368.935c1.797 0 2.555 2.074 2.555 4.179l-51.6-.107L9.525 34.16Zm35.632-8.346-9.685-4.253-4.539-10.498 6.848 2.328 6.934-2.913 3.429 2.302s6.187-1.356 6.97-1.51c4.06 4.306.39 12.349-5.503 13.544l-4.454 1Z" fill="#2C312A"/><defs><linearGradient id="a" x1="0" y1="9" x2="61.346" y2="50.516" gradientUnits="userSpaceOnUse"><stop stop-color="#F2994A"/><stop offset="1" stop-color="#F2C94C"/></linearGradient></defs></svg>