<svg width="72" height="46" fill="none" xmlns="http://www.w3.org/2000/svg"><path d="M0 6a6 6 0 0 1 6-6h4.535C13 0 15 2 15 4.465c0 4.014 4.883 5.99 7.674 3.105l5.558-5.743A6 6 0 0 1 32.543 0H66a6 6 0 0 1 6 6v33a6 6 0 0 1-6 6H6a6 6 0 0 1-6-6V6Z" fill="url(#a)"/><path fill-rule="evenodd" clip-rule="evenodd" d="m9.525 34.16-2.949-5.965L7.712 27a22.982 22.982 0 0 0 13.515 4.662c7.914 0 11.274-4.423 13.12-7.878l9.856 5.412 2.133 10.759 8.368.935c1.797 0 2.555 2.074 2.555 4.179l-51.6-.107L9.525 34.16Zm35.632-8.346-9.685-4.253-4.539-10.498 6.848 2.328 6.934-2.913 3.429 2.302s6.187-1.356 6.97-1.51c4.06 4.306.39 12.349-5.503 13.544l-4.454 1Z" fill="#2C312A"/><defs><linearGradient id="a" x1="0" y1="9" x2="61.346" y2="50.516" gradientUnits="userSpaceOnUse"><stop stop-color="#F2994A"/><stop offset="1" stop-color="#F2C94C"/></linearGradient></defs></svg>